<?xml version="1.0" encoding="UTF-8" standalone="no"?>
<!DOCTYPE svg PUBLIC "-//W3C//DTD SVG 1.1//EN"
 "http://www.w3.org/Graphics/SVG/1.1/DTD/svg11.dtd">
<!-- Generated by graphviz version 2.47.2 (20210527.0053)
 -->
<!-- Title: G Pages: 1 -->
<svg width="846pt" height="580pt"
 viewBox="0.00 0.00 845.54 580.00" xmlns="http://www.w3.org/2000/svg" xmlns:xlink="http://www.w3.org/1999/xlink">
<g id="graph0" class="graph" transform="scale(1 1) rotate(0) translate(4 576)">
<title>G</title>
<polygon fill="white" stroke="transparent" points="-4,4 -4,-576 841.54,-576 841.54,4 -4,4"/>
<g id="clust2" class="cluster">
<title>cluster_root_vars</title>
</g>
<g id="clust3" class="cluster">
<title>cluster_root_outputs</title>
</g>
<!-- [root] module.site.aws_acm_certificate.main (expand) -->
<g id="node1" class="node">
<title>[root] module.site.aws_acm_certificate.main (expand)</title>
<g id="a_node1"><a xlink:title="module.site.aws_acm_certificate.main">
<polygon fill="white" stroke="black" points="303.5,-340 144.5,-340 144.5,-304 303.5,-304 303.5,-340"/>
<text text-anchor="middle" x="224" y="-318.3" font-family="Times,serif" font-size="14.00">aws_acm_certificate.main</text>
</a>
</g>
</g>
<!-- [root] module.site.aws_route53_record.cert_validation (expand) -->
<g id="node5" class="node">
<title>[root] module.site.aws_route53_record.cert_validation (expand)</title>
<g id="a_node5"><a xlink:title="module.site.aws_route53_record.cert_validation">
<polygon fill="white" stroke="black" points="455,-268 243,-268 243,-232 455,-232 455,-268"/>
<text text-anchor="middle" x="349" y="-246.3" font-family="Times,serif" font-size="14.00">aws_route53_record.cert_validation</text>
</a>
</g>
</g>
<!-- [root] module.site.aws_acm_certificate.main (expand)&#45;&gt;[root] module.site.aws_route53_record.cert_validation (expand) -->
<g id="edge7" class="edge">
<title>[root] module.site.aws_acm_certificate.main (expand)&#45;&gt;[root] module.site.aws_route53_record.cert_validation (expand)</title>
<path fill="none" stroke="black" d="M254.58,-303.88C271.07,-294.64 291.62,-283.13 309.34,-273.21"/>
<polygon fill="black" stroke="black" points="311.29,-276.13 318.3,-268.19 307.87,-270.02 311.29,-276.13"/>
</g>
<!-- [root] module.site.aws_acm_certificate_validation.main (expand) -->
<g id="node2" class="node">
<title>[root] module.site.aws_acm_certificate_validation.main (expand)</title>
<g id="a_node2"><a xlink:title="module.site.aws_acm_certificate_validation.main">
<polygon fill="white" stroke="black" points="459,-196 239,-196 239,-160 459,-160 459,-196"/>
<text text-anchor="middle" x="349" y="-174.3" font-family="Times,serif" font-size="14.00">aws_acm_certificate_validation.main</text>
</a>
</g>
</g>
<!-- [root] module.site.aws_cloudfront_distribution.root (expand) -->
<g id="node3" class="node">
<title>[root] module.site.aws_cloudfront_distribution.root (expand)</title>
<g id="a_node3"><a xlink:title="module.site.aws_cloudfront_distribution.root">
<polygon fill="white" stroke="black" points="497.5,-124 302.5,-124 302.5,-88 497.5,-88 497.5,-124"/>
<text text-anchor="middle" x="400" y="-102.3" font-family="Times,serif" font-size="14.00">aws_cloudfront_distribution.root</text>
</a>
</g>
</g>
<!-- [root] module.site.aws_acm_certificate_validation.main (expand)&#45;&gt;[root] module.site.aws_cloudfront_distribution.root (expand) -->
<g id="edge3" class="edge">
<title>[root] module.site.aws_acm_certificate_validation.main (expand)&#45;&gt;[root] module.site.aws_cloudfront_distribution.root (expand)</title>
<path fill="none" stroke="black" d="M361.61,-159.7C367.6,-151.47 374.88,-141.48 381.48,-132.42"/>
<polygon fill="black" stroke="black" points="384.48,-134.25 387.54,-124.1 378.82,-130.13 384.48,-134.25"/>
</g>
<!-- [root] module.site.aws_cloudfront_distribution.www (expand) -->
<g id="node4" class="node">
<title>[root] module.site.aws_cloudfront_distribution.www (expand)</title>
<g id="a_node4"><a xlink:title="module.site.aws_cloudfront_distribution.www">
<polygon fill="white" stroke="black" points="217.5,-124 14.5,-124 14.5,-88 217.5,-88 217.5,-124"/>
<text text-anchor="middle" x="116" y="-102.3" font-family="Times,serif" font-size="14.00">aws_cloudfront_distribution.www</text>
</a>
</g>
</g>
<!-- [root] module.site.aws_acm_certificate_validation.main (expand)&#45;&gt;[root] module.site.aws_cloudfront_distribution.www (expand) -->
<g id="edge5" class="edge">
<title>[root] module.site.aws_acm_certificate_validation.main (expand)&#45;&gt;[root] module.site.aws_cloudfront_distribution.www (expand)</title>
<path fill="none" stroke="black" d="M292.3,-159.97C259.32,-150.06 217.57,-137.51 182.97,-127.12"/>
<polygon fill="black" stroke="black" points="183.54,-123.64 172.95,-124.11 181.52,-130.34 183.54,-123.64"/>
</g>
<!-- [root] module.site.aws_route53_record.root (expand) -->
<g id="node6" class="node">
<title>[root] module.site.aws_route53_record.root (expand)</title>
<g id="a_node6"><a xlink:title="module.site.aws_route53_record.root">
<polygon fill="white" stroke="black" points="330,-52 178,-52 178,-16 330,-16 330,-52"/>
<text text-anchor="middle" x="254" y="-30.3" font-family="Times,serif" font-size="14.00">aws_route53_record.root</text>
</a>
</g>
</g>
<!-- [root] module.site.aws_cloudfront_distribution.root (expand)&#45;&gt;[root] module.site.aws_route53_record.root (expand) -->
<g id="edge9" class="edge">
<title>[root] module.site.aws_cloudfront_distribution.root (expand)&#45;&gt;[root] module.site.aws_route53_record.root (expand)</title>
<path fill="none" stroke="black" d="M364.28,-87.88C344.5,-78.39 319.73,-66.51 298.67,-56.42"/>
<polygon fill="black" stroke="black" points="300.13,-53.24 289.6,-52.07 297.1,-59.55 300.13,-53.24"/>
</g>
<!-- [root] module.site.output.root_cloudfront_id (expand) -->
<g id="node19" class="node">
<title>[root] module.site.output.root_cloudfront_id (expand)</title>
<g id="a_node19"><a xlink:title="module.site.output.root_cloudfront_id">
<ellipse fill="white" stroke="black" cx="450" cy="-34" rx="102.08" ry="18"/>
<text text-anchor="middle" x="450" y="-30.3" font-family="Times,serif" font-size="14.00">output.root_cloudfront_id</text>
</a>
</g>
</g>
<!-- [root] module.site.aws_cloudfront_distribution.root (expand)&#45;&gt;[root] module.site.output.root_cloudfront_id (expand) -->
<g id="edge22" class="edge">
<title>[root] module.site.aws_cloudfront_distribution.root (expand)&#45;&gt;[root] module.site.output.root_cloudfront_id (expand)</title>
<path fill="none" stroke="black" d="M412.36,-87.7C418.23,-79.47 425.37,-69.48 431.84,-60.42"/>
<polygon fill="black" stroke="black" points="434.82,-62.28 437.78,-52.1 429.12,-58.21 434.82,-62.28"/>
</g>
<!-- [root] module.site.aws_route53_record.www (expand) -->
<g id="node7" class="node">
<title>[root] module.site.aws_route53_record.www (expand)</title>
<g id="a_node7"><a xlink:title="module.site.aws_route53_record.www">
<polygon fill="white" stroke="black" points="160,-52 0,-52 0,-16 160,-16 160,-52"/>
<text text-anchor="middle" x="80" y="-30.3" font-family="Times,serif" font-size="14.00">aws_route53_record.www</text>
</a>
</g>
</g>
<!-- [root] module.site.aws_cloudfront_distribution.www (expand)&#45;&gt;[root] module.site.aws_route53_record.www (expand) -->
<g id="edge10" class="edge">
<title>[root] module.site.aws_cloudfront_distribution.www (expand)&#45;&gt;[root] module.site.aws_route53_record.www (expand)</title>
<path fill="none" stroke="black" d="M107.1,-87.7C103,-79.73 98.05,-70.1 93.51,-61.26"/>
<polygon fill="black" stroke="black" points="96.48,-59.4 88.8,-52.1 90.26,-62.6 96.48,-59.4"/>
</g>
<!-- [root] module.site.aws_route53_record.cert_validation (expand)&#45;&gt;[root] module.site.aws_acm_certificate_validation.main (expand) -->
<g id="edge2" class="edge">
<title>[root] module.site.aws_route53_record.cert_validation (expand)&#45;&gt;[root] module.site.aws_acm_certificate_validation.main (expand)</title>
<path fill="none" stroke="black" d="M349,-231.7C349,-223.98 349,-214.71 349,-206.11"/>
<polygon fill="black" stroke="black" points="352.5,-206.1 349,-196.1 345.5,-206.1 352.5,-206.1"/>
</g>
<!-- [root] module.site.aws_route53_zone.site (expand) -->
<g id="node8" class="node">
<title>[root] module.site.aws_route53_zone.site (expand)</title>
<g id="a_node8"><a xlink:title="module.site.aws_route53_zone.site">
<polygon fill="white" stroke="black" points="462,-340 322,-340 322,-304 462,-304 462,-340"/>
<text text-anchor="middle" x="392" y="-318.3" font-family="Times,serif" font-size="14.00">aws_route53_zone.site</text>
</a>
</g>
</g>
<!-- [root] module.site.aws_route53_zone.site (expand)&#45;&gt;[root] module.site.aws_route53_record.cert_validation (expand) -->
<g id="edge8" class="edge">
<title>[root] module.site.aws_route53_zone.site (expand)&#45;&gt;[root] module.site.aws_route53_record.cert_validation (expand)</title>
<path fill="none" stroke="black" d="M381.37,-303.7C376.37,-295.56 370.31,-285.69 364.79,-276.7"/>
<polygon fill="black" stroke="black" points="367.72,-274.79 359.51,-268.1 361.76,-278.46 367.72,-274.79"/>
</g>
<!-- [root] module.site.aws_s3_bucket.root (expand) -->
<g id="node9" class="node">
<title>[root] module.site.aws_s3_bucket.root (expand)</title>
<g id="a_node9"><a xlink:title="module.site.aws_s3_bucket.root">
<polygon fill="white" stroke="black" points="605.5,-340 480.5,-340 480.5,-304 605.5,-304 605.5,-340"/>
<text text-anchor="middle" x="543" y="-318.3" font-family="Times,serif" font-size="14.00">aws_s3_bucket.root</text>
</a>
</g>
</g>
<!-- [root] module.site.aws_s3_bucket.root (expand)&#45;&gt;[root] module.site.aws_cloudfront_distribution.root (expand) -->
<g id="edge4" class="edge">
<title>[root] module.site.aws_s3_bucket.root (expand)&#45;&gt;[root] module.site.aws_cloudfront_distribution.root (expand)</title>
<path fill="none" stroke="black" d="M537.89,-303.55C528.13,-272.32 504.49,-205.84 468,-160 459.09,-148.8 447.34,-138.57 436.13,-130.16"/>
<polygon fill="black" stroke="black" points="437.87,-127.1 427.71,-124.08 433.77,-132.77 437.87,-127.1"/>
</g>
<!-- [root] module.site.aws_s3_bucket.www (expand) -->
<g id="node10" class="node">
<title>[root] module.site.aws_s3_bucket.www (expand)</title>
<g id="a_node10"><a xlink:title="module.site.aws_s3_bucket.www">
<polygon fill="white" stroke="black" points="182,-268 50,-268 50,-232 182,-232 182,-268"/>
<text text-anchor="middle" x="116" y="-246.3" font-family="Times,serif" font-size="14.00">aws_s3_bucket.www</text>
</a>
</g>
</g>
<!-- [root] module.site.aws_s3_bucket.www (expand)&#45;&gt;[root] module.site.aws_cloudfront_distribution.www (expand) -->
<g id="edge6" class="edge">
<title>[root] module.site.aws_s3_bucket.www (expand)&#45;&gt;[root] module.site.aws_cloudfront_distribution.www (expand)</title>
<path fill="none" stroke="black" d="M116,-231.87C116,-207.67 116,-163.21 116,-134.39"/>
<polygon fill="black" stroke="black" points="119.5,-134.19 116,-124.19 112.5,-134.19 119.5,-134.19"/>
</g>
<!-- [root] module.site.random_string.slug (expand) -->
<g id="node11" class="node">
<title>[root] module.site.random_string.slug (expand)</title>
<g id="a_node11"><a xlink:title="module.site.random_string.slug">
<polygon fill="white" stroke="black" points="602,-484 480,-484 480,-448 602,-448 602,-484"/>
<text text-anchor="middle" x="541" y="-462.3" font-family="Times,serif" font-size="14.00">random_string.slug</text>
</a>
</g>
</g>
<!-- [root] module.site.local.root_bucket_name (expand) -->
<g id="node13" class="node">
<title>[root] module.site.local.root_bucket_name (expand)</title>
<g id="a_node13"><a xlink:title="module.site.local.root_bucket_name">
<ellipse fill="white" stroke="black" cx="597" cy="-394" rx="96.38" ry="18"/>
<text text-anchor="middle" x="597" y="-390.3" font-family="Times,serif" font-size="14.00">local.root_bucket_name</text>
</a>
</g>
</g>
<!-- [root] module.site.random_string.slug (expand)&#45;&gt;[root] module.site.local.root_bucket_name (expand) -->
<g id="edge18" class="edge">
<title>[root] module.site.random_string.slug (expand)&#45;&gt;[root] module.site.local.root_bucket_name (expand)</title>
<path fill="none" stroke="black" d="M554.84,-447.7C561.49,-439.39 569.58,-429.28 576.89,-420.14"/>
<polygon fill="black" stroke="black" points="579.8,-422.1 583.32,-412.1 574.34,-417.73 579.8,-422.1"/>
</g>
<!-- [root] module.site.local.tags (expand) -->
<g id="node12" class="node">
<title>[root] module.site.local.tags (expand)</title>
<g id="a_node12"><a xlink:title="module.site.local.tags">
<ellipse fill="white" stroke="black" cx="335" cy="-394" rx="44.39" ry="18"/>
<text text-anchor="middle" x="335" y="-390.3" font-family="Times,serif" font-size="14.00">local.tags</text>
</a>
</g>
</g>
<!-- [root] module.site.local.tags (expand)&#45;&gt;[root] module.site.aws_acm_certificate.main (expand) -->
<g id="edge1" class="edge">
<title>[root] module.site.local.tags (expand)&#45;&gt;[root] module.site.aws_acm_certificate.main (expand)</title>
<path fill="none" stroke="black" d="M312,-378.5C296.97,-369.02 277.02,-356.44 259.92,-345.65"/>
<polygon fill="black" stroke="black" points="261.61,-342.58 251.28,-340.2 257.87,-348.5 261.61,-342.58"/>
</g>
<!-- [root] module.site.local.tags (expand)&#45;&gt;[root] module.site.aws_route53_zone.site (expand) -->
<g id="edge11" class="edge">
<title>[root] module.site.local.tags (expand)&#45;&gt;[root] module.site.aws_route53_zone.site (expand)</title>
<path fill="none" stroke="black" d="M348.22,-376.76C355.14,-368.27 363.76,-357.68 371.52,-348.15"/>
<polygon fill="black" stroke="black" points="374.46,-350.09 378.06,-340.12 369.03,-345.67 374.46,-350.09"/>
</g>
<!-- [root] module.site.local.tags (expand)&#45;&gt;[root] module.site.aws_s3_bucket.root (expand) -->
<g id="edge13" class="edge">
<title>[root] module.site.local.tags (expand)&#45;&gt;[root] module.site.aws_s3_bucket.root (expand)</title>
<path fill="none" stroke="black" d="M367.96,-381.91C398.66,-371.57 445.19,-355.92 482.56,-343.34"/>
<polygon fill="black" stroke="black" points="483.98,-346.55 492.35,-340.05 481.75,-339.92 483.98,-346.55"/>
</g>
<!-- [root] module.site.local.tags (expand)&#45;&gt;[root] module.site.aws_s3_bucket.www (expand) -->
<g id="edge14" class="edge">
<title>[root] module.site.local.tags (expand)&#45;&gt;[root] module.site.aws_s3_bucket.www (expand)</title>
<path fill="none" stroke="black" d="M293.91,-387.14C242.23,-378.94 157.62,-362.49 136,-340 120.35,-323.72 115.93,-297.96 115.08,-278.34"/>
<polygon fill="black" stroke="black" points="118.58,-278.11 114.93,-268.17 111.58,-278.22 118.58,-278.11"/>
</g>
<!-- [root] module.site.local.root_bucket_name (expand)&#45;&gt;[root] module.site.aws_s3_bucket.root (expand) -->
<g id="edge12" class="edge">
<title>[root] module.site.local.root_bucket_name (expand)&#45;&gt;[root] module.site.aws_s3_bucket.root (expand)</title>
<path fill="none" stroke="black" d="M583.93,-376.05C577.52,-367.75 569.68,-357.58 562.58,-348.38"/>
<polygon fill="black" stroke="black" points="565.21,-346.06 556.33,-340.28 559.66,-350.33 565.21,-346.06"/>
</g>
<!-- [root] module.site.output.root_bucket_name (expand) -->
<g id="node18" class="node">
<title>[root] module.site.output.root_bucket_name (expand)</title>
<g id="a_node18"><a xlink:title="module.site.output.root_bucket_name">
<ellipse fill="white" stroke="black" cx="671" cy="-34" rx="101.28" ry="18"/>
<text text-anchor="middle" x="671" y="-30.3" font-family="Times,serif" font-size="14.00">output.root_bucket_name</text>
</a>
</g>
</g>
<!-- [root] module.site.local.root_bucket_name (expand)&#45;&gt;[root] module.site.output.root_bucket_name (expand) -->
<g id="edge21" class="edge">
<title>[root] module.site.local.root_bucket_name (expand)&#45;&gt;[root] module.site.output.root_bucket_name (expand)</title>
<path fill="none" stroke="black" d="M608.4,-375.9C624.51,-350.02 652,-298.85 652,-251 652,-251 652,-251 652,-177 652,-136.86 659.55,-90.9 665.13,-62.4"/>
<polygon fill="black" stroke="black" points="668.61,-62.88 667.16,-52.39 661.74,-61.5 668.61,-62.88"/>
</g>
<!-- [root] module.site.local.bucket_domain_name (expand) -->
<g id="node14" class="node">
<title>[root] module.site.local.bucket_domain_name (expand)</title>
<g id="a_node14"><a xlink:title="module.site.local.bucket_domain_name">
<ellipse fill="white" stroke="black" cx="729" cy="-466" rx="108.58" ry="18"/>
<text text-anchor="middle" x="729" y="-462.3" font-family="Times,serif" font-size="14.00">local.bucket_domain_name</text>
</a>
</g>
</g>
<!-- [root] module.site.local.bucket_domain_name (expand)&#45;&gt;[root] module.site.local.root_bucket_name (expand) -->
<g id="edge17" class="edge">
<title>[root] module.site.local.bucket_domain_name (expand)&#45;&gt;[root] module.site.local.root_bucket_name (expand)</title>
<path fill="none" stroke="black" d="M698.05,-448.59C679.76,-438.89 656.42,-426.51 636.77,-416.09"/>
<polygon fill="black" stroke="black" points="638.23,-412.9 627.75,-411.31 634.95,-419.09 638.23,-412.9"/>
</g>
<!-- [root] module.site.local.default_tags (expand) -->
<g id="node15" class="node">
<title>[root] module.site.local.default_tags (expand)</title>
<g id="a_node15"><a xlink:title="module.site.local.default_tags">
<ellipse fill="white" stroke="black" cx="389" cy="-466" rx="73.39" ry="18"/>
<text text-anchor="middle" x="389" y="-462.3" font-family="Times,serif" font-size="14.00">local.default_tags</text>
</a>
</g>
</g>
<!-- [root] module.site.local.default_tags (expand)&#45;&gt;[root] module.site.local.tags (expand) -->
<g id="edge19" class="edge">
<title>[root] module.site.local.default_tags (expand)&#45;&gt;[root] module.site.local.tags (expand)</title>
<path fill="none" stroke="black" d="M375.93,-448.05C369.26,-439.42 361.04,-428.76 353.72,-419.27"/>
<polygon fill="black" stroke="black" points="356.46,-417.09 347.58,-411.31 350.92,-421.36 356.46,-417.09"/>
</g>
<!-- [root] module.site.var.domain_name (expand) -->
<g id="node16" class="node">
<title>[root] module.site.var.domain_name (expand)</title>
<g id="a_node16"><a xlink:title="module.site.var.domain_name">
<ellipse fill="white" stroke="black" cx="419" cy="-538" rx="74.99" ry="18"/>
<text text-anchor="middle" x="419" y="-534.3" font-family="Times,serif" font-size="14.00">var.domain_name</text>
</a>
</g>
</g>
<!-- [root] module.site.var.domain_name (expand)&#45;&gt;[root] module.site.local.bucket_domain_name (expand) -->
<g id="edge15" class="edge">
<title>[root] module.site.var.domain_name (expand)&#45;&gt;[root] module.site.local.bucket_domain_name (expand)</title>
<path fill="none" stroke="black" d="M471.59,-525.13C522.76,-513.57 600.88,-495.93 657.64,-483.11"/>
<polygon fill="black" stroke="black" points="658.64,-486.48 667.62,-480.86 657.1,-479.65 658.64,-486.48"/>
</g>
<!-- [root] module.site.var.domain_name (expand)&#45;&gt;[root] module.site.local.default_tags (expand) -->
<g id="edge16" class="edge">
<title>[root] module.site.var.domain_name (expand)&#45;&gt;[root] module.site.local.default_tags (expand)</title>
<path fill="none" stroke="black" d="M411.74,-520.05C408.32,-512.09 404.18,-502.41 400.36,-493.51"/>
<polygon fill="black" stroke="black" points="403.56,-492.09 396.4,-484.28 397.13,-494.85 403.56,-492.09"/>
</g>
<!-- [root] module.site.var.tags (expand) -->
<g id="node17" class="node">
<title>[root] module.site.var.tags (expand)</title>
<g id="a_node17"><a xlink:title="module.site.var.tags">
<ellipse fill="white" stroke="black" cx="288" cy="-538" rx="38.19" ry="18"/>
<text text-anchor="middle" x="288" y="-534.3" font-family="Times,serif" font-size="14.00">var.tags</text>
</a>
</g>
</g>
<!-- [root] module.site.var.tags (expand)&#45;&gt;[root] module.site.local.tags (expand) -->
<g id="edge20" class="edge">
<title>[root] module.site.var.tags (expand)&#45;&gt;[root] module.site.local.tags (expand)</title>
<path fill="none" stroke="black" d="M290.22,-519.88C292.91,-501.67 298.21,-472.21 307,-448 310.39,-438.66 315.15,-428.92 319.78,-420.37"/>
<polygon fill="black" stroke="black" points="322.84,-422.07 324.68,-411.64 316.73,-418.64 322.84,-422.07"/>
</g>
</g>
</svg>
